<svg id="Layer_1" enable-background="new 0 0 512.017 512.017" height="512" viewBox="0 0 512.017 512.017" width="512" xmlns="http://www.w3.org/2000/svg"><g><g><path d="m196.64 258.423c34.485 4.001 60.902 14.654 62.814 25.331.806 4.502-1.581 21.738-66.146 54.534-4.924 2.501-6.888 8.521-4.387 13.445 1.764 3.473 5.278 5.474 8.924 5.474 1.523 0 3.07-.35 4.521-1.086 56.512-28.705 80.908-52.82 76.775-75.892-5.343-29.833-57.864-39.08-80.196-41.671-13.515-1.568-18.249-5.246-19.006-6.393.646-3.111 12.255-16.324 58.295-26.572 5.391-1.2 8.788-6.543 7.588-11.934s-6.541-8.789-11.934-7.588c-47.996 10.683-74.949 27.9-73.947 47.235.327 6.308 4.557 21.388 36.699 25.117z"/><path d="m507.924 267.145c-2.565-1.883-5.877-2.432-8.917-1.479-12.138 4.547-126.505 32.661-171.859-26.848 107.164-71.079 57.797-237.81-71.141-238.802-85.744-1.36-150.503 86.353-124.359 167.854-4.509 1.954-8.872 3.935-13.033 5.906-49.201 23.306-91.796 53.904-115.253 74.768-2.133 1.898-3.354 4.617-3.354 7.472v246.001c0 5.523 4.477 10 10 10h492.001c5.523 0 10-4.477 10-10v-226.812c0-3.184-1.519-6.176-4.085-8.06zm-361.915-137.13c0-60.654 49.346-110 110-110 109.002.835 150.831 141.71 60.382 201.937-2.614-5.216-4.866-10.778-6.713-16.717-9.362-30.11-28.093-49.266-55.671-56.934-31.771-8.835-70.286-.366-103.71 12.05-2.833-9.855-4.288-20.023-4.288-30.336zm102.641 37.556c20.898 5.811 34.614 20.073 41.93 43.603 27.839 95.326 140.869 92.814 201.43 77.077v119.777c-69.125-39.953-115.604-58.954-149.604-61.295-36.015-2.477-56.397 13.037-80 31.003-37.268 28.368-88.121 67.069-242.397 56.008v-173.19c49.831-42.887 163.306-111.15 228.641-92.983zm-228.642 324.446v-38.221c338.287 25.603 194.82-189.144 472.001-22.612v60.834h-472.001z"/><path d="m157.061 376.247c13.268-.528 13.258-19.477 0-20h-.007c-13.268.529-13.25 19.478.007 20z"/></g></g></svg>