<svg id="Capa_1" enable-background="new 0 0 512 512" height="512" viewBox="0 0 512 512" width="512" xmlns="http://www.w3.org/2000/svg"><g><path d="m510.995 467.457-248.5-430.415c-1.34-2.32-3.815-3.75-6.495-3.75s-5.155 1.43-6.495 3.75l-116.75 202.218c-2.071 3.587-.842 8.174 2.745 10.245 3.586 2.071 8.174.842 10.245-2.745l110.255-190.967 235.51 407.915h-471.02l110.255-190.968c2.071-3.587.842-8.174-2.745-10.245-3.588-2.072-8.175-.843-10.245 2.745l-116.75 202.217c-1.34 2.32-1.34 5.18 0 7.5s3.815 3.75 6.495 3.75h497c2.68 0 5.155-1.43 6.495-3.75s1.34-5.179 0-7.5z"/></g></svg>